<svg xmlns="http://www.w3.org/2000/svg" width="43.882" height="43.566" viewBox="0 0 43.882 45.566"><path d="M62.571,392a2.672,2.672,0,1,0,2.571,2.67A2.625,2.625,0,0,0,62.571,392Zm0,3.56a.891.891,0,1,1,.857-.89A.875.875,0,0,1,62.571,395.56Z" transform="translate(-54.858 -357.114)"/><path d="M43.025,31.326h-3.6V26.165a2.673,2.673,0,0,0,.086-5.338V17.354a.858.858,0,1,0-1.714,0v3.473H36.082V8.01H37.8V9.434a.858.858,0,1,0,1.714,0V8.01H40.8a.849.849,0,0,0,.716-.4.919.919,0,0,0,.072-.84L40.568,4.307A6.835,6.835,0,0,0,34.277,0H11.661A6.835,6.835,0,0,0,5.371,4.307L4.355,6.769a.919.919,0,0,0,.072.84.849.849,0,0,0,.715.4H6.814V20.826a2.672,2.672,0,0,0,.043,5.339V29.6a8.031,8.031,0,0,0,.857,15.969,7.837,7.837,0,0,0,7.666-7.12H38.568a.874.874,0,0,0,.857-.89v-.89h1.714v8.01a.858.858,0,1,0,1.714,0v-8.01h.171a.874.874,0,0,0,.857-.89v-3.56a.874.874,0,0,0-.857-.89Zm-8.656-10.5H31.952l.691-4.3a.914.914,0,0,0-.191-.721.844.844,0,0,0-.654-.315H26.655A.844.844,0,0,0,26,15.8a.914.914,0,0,0-.191.721l.691,4.3H22.2v-4.45a.874.874,0,0,0-.857-.89H18.77v-2.67a.874.874,0,0,0-.857-.89H14.484a.874.874,0,0,0-.857.89v2.67H11.956V8.01H34.368Zm-6.7-3.56h3.119l-.571,3.56H28.238Zm-15.71,0h1.671v.89a.874.874,0,0,0,.857.89h3.428a.874.874,0,0,0,.857-.89v-.89h1.714v3.56H11.956Zm5.1,0H15.341v-3.56h1.714ZM6.946,5.008A5.123,5.123,0,0,1,11.661,1.78H34.277a5.123,5.123,0,0,1,4.715,3.229l.5,1.221H6.442Zm3.3,3L10.2,20.825H8.528V8.01ZM6,23.495a.875.875,0,0,1,.857-.89H39.425a.891.891,0,0,1,0,1.78H6.856A.875.875,0,0,1,6,23.495ZM7.714,43.786a6.234,6.234,0,0,1,0-12.459,6.234,6.234,0,0,1,0,12.459Zm30-7.12H15.379A7.881,7.881,0,0,0,8.571,29.6V26.165h29.14Zm1.714-3.56h2.743v1.78H39.425Z" transform="translate(0 0)"/><circle cx="1" cy="1" r="1" transform="translate(37.039 12.804)"/></svg>