<svg xmlns="http://www.w3.org/2000/svg" width="42.872" height="34.71" viewBox="0 0 42.872 34.71"><path d="M60.905,40.794H55.323a6.636,6.636,0,0,0-.729-5.775,2.508,2.508,0,0,0-3.521-2.66,6.575,6.575,0,0,0-3.134-.2,8.369,8.369,0,0,0-.533-.926,2.987,2.987,0,0,0-4.257-3.212,8.219,8.219,0,0,0-4.967-.055,2.332,2.332,0,0,0-.55-.325,2.368,2.368,0,0,0-3.221,2.729,8.19,8.19,0,0,0-1.17,1.719c-.028,0-.056,0-.084,0a8.135,8.135,0,0,0-3.172.64,2.275,2.275,0,0,0-3.458,1.949,2.243,2.243,0,0,0,.095.64,8.231,8.231,0,0,0-1.715,5.025c0,.153.011.306.02.459H19.7a.831.831,0,0,0-.831.831v7.411a8.235,8.235,0,0,0,7.465,8.187v1.6a3.344,3.344,0,0,0,3.34,3.34H50.93a3.344,3.344,0,0,0,3.34-3.34v-1.6a8.235,8.235,0,0,0,7.466-8.187V41.629a.831.831,0,0,0-.831-.835ZM50.857,34.046a.83.83,0,0,0,.771-.095.846.846,0,0,1,1.287.972.834.834,0,0,0,.122.77,4.963,4.963,0,0,1,.617,4.861c-.035.085-.083.161-.123.243h-8.89a4.934,4.934,0,0,1,.976-5.662.831.831,0,0,0,.148-.989.365.365,0,0,1-.021-.317.369.369,0,0,1,.482-.2.363.363,0,0,1,.153.125.831.831,0,0,0,.963.285,4.928,4.928,0,0,1,3.514.008Zm-14.9-2.887a.832.832,0,0,0,.147-.989.705.705,0,0,1,1.187-.76.833.833,0,0,0,.964.285,6.577,6.577,0,0,1,4.685.011.829.829,0,0,0,.771-.095,1.326,1.326,0,0,1,2.015,1.52.831.831,0,0,0,.122.766c.014.019.024.039.038.057a2.013,2.013,0,0,0-1.789,2.375,6.589,6.589,0,0,0-1.239,6.459H41.392c.009-.153.02-.305.02-.459a8.261,8.261,0,0,0-6.381-8.022,6.529,6.529,0,0,1,.922-1.147Zm-9.385,9.176a6.578,6.578,0,0,1,1.642-4.341A.831.831,0,0,0,28.289,35a.6.6,0,0,1-.1-.328.617.617,0,0,1,.617-.617.611.611,0,0,1,.45.2.83.83,0,0,0,.979.18,6.519,6.519,0,0,1,2.92-.69,6.6,6.6,0,0,1,6.589,6.59c0,.153-.009.306-.02.459H26.589C26.578,40.641,26.569,40.489,26.569,40.335Zm-.722,2.121H60.072v1.072H20.526V42.456ZM53.512,55.6h-.073a.831.831,0,0,0-.831.831v2.4A1.68,1.68,0,0,1,50.93,60.5H29.669a1.68,1.68,0,0,1-1.678-1.678V57.258H48.373a.831.831,0,1,0,0-1.662H27.088a6.569,6.569,0,0,1-6.561-6.558V45.191H60.074v3.847A6.569,6.569,0,0,1,53.512,55.6Z" transform="translate(-18.864 -27.455)"/></svg>