<svg xmlns="http://www.w3.org/2000/svg" width="43.821" height="43.822" viewBox="0 0 43.821 43.822"><path d="M59.093,17.46H42.9a2.19,2.19,0,0,0-3.526-.9,2.192,2.192,0,0,0-3.528.9H34.137a2.192,2.192,0,0,0-4.132,0H26.227a.73.73,0,0,0-.73.73v5.843a.73.73,0,0,0,.73.73h3.652V35.292a8.063,8.063,0,0,0-2.191-.3,7.977,7.977,0,0,0-2.488.4l-2.6-3.8a3.656,3.656,0,0,0-5.076-.952l-1.205.825a.73.73,0,0,0-.19,1.015l4.54,6.634a7.95,7.95,0,0,0-.712,1.718H18.924a.73.73,0,0,0-.73.73v2.921A12.43,12.43,0,0,0,30.609,56.9H32.07v.73a2.194,2.194,0,0,0,2.191,2.191h7.3a2.194,2.194,0,0,0,2.191-2.191V56.9h1.461A12.43,12.43,0,0,0,57.633,44.483V41.562a.73.73,0,0,0-.73-.73H55.867a8.038,8.038,0,0,0-9.92-5.539V24.764H59.093a.73.73,0,0,0,.73-.73V18.191A.73.73,0,0,0,59.093,17.46ZM43.025,20.382V18.921H58.363v1.461Zm2.5,20.087a3.624,3.624,0,0,1,2.608-1.1,3.66,3.66,0,0,1,2.921,1.461H45.642Q45.59,40.648,45.53,40.468Zm-3,.363a5.113,5.113,0,0,0-9.239,0H31.715a6.574,6.574,0,0,1,12.4,0Zm-1.7,0H34.992a3.652,3.652,0,0,1,5.843,0Zm-10.65,0H24.766a3.649,3.649,0,0,1,5.529-.362q-.06.18-.112.362Zm5.538-20.45H34.261V18.921h1.461Zm0,1.461V35.3a8.033,8.033,0,0,0-1.461.575V21.842Zm5.113-4.382a.728.728,0,0,1,.73.73V35.872A8.034,8.034,0,0,0,40.1,35.3V18.191A.731.731,0,0,1,40.834,17.46Zm-2.921,0a.728.728,0,0,1,.73.73V35.023c-.241-.022-.485-.034-.73-.034s-.489.012-.73.034V18.191A.731.731,0,0,1,37.913,17.46ZM26.958,18.921h2.921v1.461H26.958Zm0,4.382V21.842h2.921V23.3Zm4.382-5.113a.73.73,0,1,1,1.461,0V36.827a8.007,8.007,0,0,0-1.461-.962ZM17.748,32.257l.6-.412a2.194,2.194,0,0,1,3.046.571l2.439,3.564a8.109,8.109,0,0,0-2.272,1.852Zm9.94,4.192a6.529,6.529,0,0,1,4.073,1.415,8.031,8.031,0,0,0-.839,1.2,5.109,5.109,0,0,0-7.854,1.764H21.49A6.6,6.6,0,0,1,27.688,36.449ZM42.3,57.63a.731.731,0,0,1-.73.73h-7.3a.731.731,0,0,1-.73-.73V56.9H42.3Zm2.921-2.191H30.609a10.969,10.969,0,0,1-10.93-10.225H56.147a10.969,10.969,0,0,1-10.93,10.225ZM56.172,43.753H19.654V42.292H56.172Zm-1.836-2.921H52.757A5.113,5.113,0,0,0,44.9,39.065a8.031,8.031,0,0,0-.837-1.2,6.529,6.529,0,0,1,4.073-1.415,6.6,6.6,0,0,1,6.2,4.382Zm-11.31-4V21.842h1.461V35.865a8.008,8.008,0,0,0-1.461.962ZM45.947,23.3V21.842H58.363V23.3Z" transform="translate(-16.002 -15.999)"/></svg>