<svg xmlns="http://www.w3.org/2000/svg" width="61.81" height="61.81" viewBox="0 0 61.81 61.81"><g transform="translate(30.905 0) rotate(45)"><path d="M43.706,31.217a4.871,4.871,0,0,0-1.444-3.4l-6.931-6.931-.023-.026-.026-.023-2.315-2.315a.838.838,0,1,0-1.184,1.184l1.733,1.733-2.8,2.8a.826.826,0,0,0-.24.546,5.977,5.977,0,0,1-5.7,5.7.826.826,0,0,0-.546.24l-2.8,2.8L13.122,25.2,15.917,22.4a.826.826,0,0,0,.24-.546,5.986,5.986,0,0,1,5.7-5.7.826.826,0,0,0,.546-.24L25.2,13.123l1.087,1.087a.867.867,0,0,0,.6.256.825.825,0,0,0,.6-.241.848.848,0,0,0-.015-1.2l-1.693-1.693h0L23.7,9.256A9.684,9.684,0,0,0,15.35,6.323c-1.293.063-2.046.077-2.492-.369l-1.1-1.1.065-.065a.828.828,0,0,0,.241-.6.869.869,0,0,0-.256-.6L9.143.926A3.137,3.137,0,0,0,6.954,0,2.984,2.984,0,0,0,4.786.872L.872,4.786A2.984,2.984,0,0,0,0,6.954,3.137,3.137,0,0,0,.926,9.143L3.591,11.81a.87.87,0,0,0,.6.256h0a.827.827,0,0,0,.6-.241l.065-.065,1.1,1.1c.446.446.432,1.2.369,2.492A9.684,9.684,0,0,0,9.256,23.7l2.075,2.075h0l9.509,9.509.022.025.025.022,6.932,6.932a4.871,4.871,0,0,0,3.4,1.444,4.642,4.642,0,0,0,4.665-3.941,4.637,4.637,0,0,0,3.883-3.883,4.642,4.642,0,0,0,3.941-4.665ZM2.111,7.959A1.41,1.41,0,0,1,1.7,6.975,1.341,1.341,0,0,1,2.086,6L6,2.086a1.341,1.341,0,0,1,.975-.39,1.41,1.41,0,0,1,.985.415l2.059,2.057L4.168,10.019Zm5.906,7.516c.07-1.433.136-2.786-.878-3.8l-1.1-1.1L10.576,6.04l1.1,1.1c1.014,1.014,2.368.948,3.8.878,2.063-.1,4.4-.215,7.04,2.424l1.469,1.469-2.578,2.578a7.628,7.628,0,0,0-6.919,6.919l-2.578,2.578L10.44,22.515c-2.639-2.638-2.525-4.977-2.424-7.04Zm31.7,18.682A4.906,4.906,0,0,0,38.38,31.7a.838.838,0,1,0-1.186,1.182,3.151,3.151,0,0,1,.931,2.193,3,3,0,0,1-3.046,3.046,3.151,3.151,0,0,1-2.193-.931A.838.838,0,1,0,31.7,38.38a4.906,4.906,0,0,0,2.454,1.336A3,3,0,0,1,31.2,42.01,3.144,3.144,0,0,1,29,41.078l-6.348-6.349,2.579-2.579a7.618,7.618,0,0,0,6.917-6.917l2.579-2.579L41.078,29A3.143,3.143,0,0,1,42.01,31.2,3,3,0,0,1,39.716,34.157Z" transform="translate(0 0)"/><path d="M10.779.4A1.319,1.319,0,0,0,8.914.375L.375,8.914A1.319,1.319,0,0,0,.4,10.779a1.348,1.348,0,0,0,.937.4,1.282,1.282,0,0,0,.927-.375l8.54-8.54A1.319,1.319,0,0,0,10.779.4Z" transform="translate(16.135 16.051)"/><path d="M8.914.375.375,8.914A1.319,1.319,0,0,0,.4,10.779a1.348,1.348,0,0,0,.937.4,1.282,1.282,0,0,0,.927-.375l8.54-8.54A1.319,1.319,0,0,0,10.779.4,1.319,1.319,0,0,0,8.914.375Z" transform="translate(18.73 18.646)"/><path d="M.405,2.246a1.339,1.339,0,0,0,.931.4,1.286,1.286,0,0,0,.929-.376A1.323,1.323,0,0,0,2.239.4,1.319,1.319,0,0,0,.375.375,1.319,1.319,0,0,0,.4,2.239Z" transform="translate(28.071 15.185)"/></g></svg>